<svg width="15" height="14" viewBox="0 0 15 14" fill="none" xmlns="http://www.w3.org/2000/svg">
<g clip-path="url(#clip0_4_249)">
<path d="M6.45269 0.584961C5.37338 0.738474 4.3503 1.16205 3.47834 1.8164C2.60639 2.47075 1.91378 3.33469 1.46476 4.3281C1.01574 5.32151 0.824842 6.41222 0.90977 7.49909C0.994699 8.58595 1.3527 9.63377 1.95058 10.5454L0.864899 13.4737L4.50045 12.8164C5.43529 13.2742 6.46687 13.4995 7.50746 13.4731C8.54806 13.4467 9.5669 13.1695 10.4773 12.6649C11.3878 12.1603 12.1629 11.4432 12.7368 10.5748C13.3107 9.70636 13.6663 8.71217 13.7736 7.67678" stroke="black" stroke-linecap="round" stroke-linejoin="round"/>
<path d="M11.3232 5.50511C12.6985 5.50511 13.8133 4.39025 13.8133 3.01501C13.8133 1.63976 12.6985 0.524902 11.3232 0.524902C9.94802 0.524902 8.83316 1.63976 8.83316 3.01501C8.83316 4.39025 9.94802 5.50511 11.3232 5.50511Z" stroke="black" stroke-linecap="round" stroke-linejoin="round"/>
</g>
<defs>
<clipPath id="clip0_4_249">
<rect width="14" height="14" fill="white" transform="translate(0.339142)"/>
</clipPath>
</defs>
</svg>
