<svg width="25" height="24" viewBox="0 0 25 24" fill="none" xmlns="http://www.w3.org/2000/svg">
<path d="M11.8336 20.2979L11.8271 20.2945L11.8049 20.2829C11.7861 20.2729 11.7592 20.2586 11.7248 20.2401C11.6561 20.203 11.5574 20.1488 11.4329 20.0784C11.184 19.9375 10.8315 19.731 10.41 19.4647C9.56867 18.9333 8.44276 18.1577 7.31246 17.1836C5.10336 15.2798 2.64999 12.4227 2.64999 9.00001C2.64999 6.01767 5.06766 3.60001 8.04999 3.60001C9.74728 3.60001 11.2605 4.38286 12.25 5.6059C13.2395 4.38286 14.7527 3.60001 16.45 3.60001C19.4323 3.60001 21.85 6.01767 21.85 9.00001C21.85 12.4227 19.3966 15.2798 17.1875 17.1836C16.0572 18.1577 14.9313 18.9333 14.09 19.4647C13.6685 19.731 13.316 19.9375 13.0671 20.0784C12.9426 20.1488 12.8439 20.203 12.7751 20.2401C12.7408 20.2586 12.7139 20.2729 12.6951 20.2829L12.6729 20.2945L12.6664 20.2979L12.6644 20.2989C12.406 20.436 12.094 20.436 11.8363 20.2993L11.8336 20.2979Z" fill="#A19A9A"/>
</svg>
