<svg width="22" height="20" viewBox="0 0 22 20" fill="none" xmlns="http://www.w3.org/2000/svg">
<path d="M10.2197 1.84101C10.5126 1.54811 10.9874 1.54811 11.2803 1.84101L19.9697 10.5303C20.2626 10.8232 20.7374 10.8232 21.0303 10.5303C21.3232 10.2375 21.3232 9.76258 21.0303 9.46969L12.341 0.780347C11.4623 -0.0983331 10.0377 -0.0983309 9.15901 0.780348L0.46967 9.46969C0.176777 9.76258 0.176777 10.2375 0.46967 10.5303C0.762563 10.8232 1.23744 10.8232 1.53033 10.5303L10.2197 1.84101Z" fill="#0F172A"/>
<path d="M10.75 3.432L18.909 11.591C18.9387 11.6207 18.9691 11.6494 19 11.6772V17.875C19 18.9105 18.1605 19.75 17.125 19.75H13.75C13.3358 19.75 13 19.4142 13 19V14.5C13 14.0858 12.6642 13.75 12.25 13.75H9.25C8.83579 13.75 8.5 14.0858 8.5 14.5V19C8.5 19.4142 8.16421 19.75 7.75 19.75H4.375C3.33947 19.75 2.5 18.9106 2.5 17.875V11.6772C2.53093 11.6494 2.56127 11.6207 2.59099 11.591L10.75 3.432Z" fill="#0F172A"/>
</svg>
