<svg width="22" height="18" viewBox="0 0 22 18" fill="none" xmlns="http://www.w3.org/2000/svg">
<path fill-rule="evenodd" clip-rule="evenodd" d="M5.66179 0C4.34478 0 3.18177 0.858967 2.79446 2.11774L0.382663 9.95607C0.294715 10.2419 0.25 10.5393 0.25 10.8383V15C0.25 16.6569 1.59315 18 3.25 18H18.25C19.9069 18 21.25 16.6569 21.25 15V10.8383C21.25 10.5393 21.2053 10.2419 21.1173 9.95607L18.7055 2.11774C18.3182 0.858968 17.1552 0 15.8382 0H5.66179ZM19.4845 9.75L17.2719 2.55887C17.0782 1.92948 16.4967 1.5 15.8382 1.5H5.66179C5.00329 1.5 4.42178 1.92948 4.22812 2.55887L2.01547 9.75H4.85942C5.99574 9.75 7.03453 10.392 7.54271 11.4084L7.79894 11.9208C8.05302 12.429 8.57242 12.75 9.14058 12.75H12.3594C12.9276 12.75 13.447 12.429 13.7011 11.9208L13.9573 11.4084C14.4655 10.392 15.5043 9.75 16.6406 9.75H19.4845Z" fill="#A19A9A"/>
</svg>
