<svg width="20" height="20" viewBox="0 0 20 20" fill="none" xmlns="http://www.w3.org/2000/svg">
<path fill-rule="evenodd" clip-rule="evenodd" d="M8.75 1.75C5.02208 1.75 2 4.77208 2 8.5C2 12.2279 5.02208 15.25 8.75 15.25C10.6142 15.25 12.3006 14.4953 13.523 13.273C14.7453 12.0506 15.5 10.3642 15.5 8.5C15.5 4.77208 12.4779 1.75 8.75 1.75ZM0.5 8.5C0.5 3.94365 4.19365 0.25 8.75 0.25C13.3063 0.25 17 3.94365 17 8.5C17 10.5078 16.282 12.3491 15.0899 13.7793L19.7803 18.4697C20.0732 18.7626 20.0732 19.2374 19.7803 19.5303C19.4874 19.8232 19.0126 19.8232 18.7197 19.5303L14.0293 14.8399C12.5991 16.032 10.7578 16.75 8.75 16.75C4.19365 16.75 0.5 13.0563 0.5 8.5Z" fill="#A19A9A"/>
</svg>
