<svg width="14" height="11" viewBox="0 0 14 11" fill="none" xmlns="http://www.w3.org/2000/svg">
<path d="M13.23 4.7463C13.3958 4.95302 13.4876 5.22159 13.4876 5.50006C13.4876 5.77853 13.3958 6.0471 13.23 6.25382C12.18 7.52509 9.78997 10.0001 6.99997 10.0001C4.20997 10.0001 1.81997 7.52509 0.769968 6.25382C0.604128 6.0471 0.512329 5.77853 0.512329 5.50006C0.512329 5.22159 0.604128 4.95302 0.769968 4.7463C1.81997 3.47503 4.20997 1 6.99997 1C9.78997 1 12.18 3.47503 13.23 4.7463Z" stroke="black" stroke-linecap="round" stroke-linejoin="round"/>
<path d="M7 7.5C8.10457 7.5 9 6.60457 9 5.5C9 4.39543 8.10457 3.5 7 3.5C5.89543 3.5 5 4.39543 5 5.5C5 6.60457 5.89543 7.5 7 7.5Z" stroke="black" stroke-linecap="round" stroke-linejoin="round"/>
</svg>
